<svg xmlns="http://www.w3.org/2000/svg" xmlns:xlink="http://www.w3.org/1999/xlink" width="900" zoomAndPan="magnify" viewBox="0 0 675 128.249994" height="171" preserveAspectRatio="xMidYMid meet" version="1.0"><defs><g/></defs><path fill="#01eb78" d="M 304.808594 9.800781 L 307.886719 6.710938 C 312.601562 2.027344 320.289062 2.324219 324.609375 7.359375 L 367.179688 57.183594 C 370.898438 61.519531 370.851562 67.945312 367.078125 72.230469 L 324.65625 120.507812 C 320.289062 125.441406 312.699219 125.691406 308.035156 121.007812 L 304.960938 117.917969 C 300.792969 113.730469 300.492188 107.058594 304.265625 102.472656 L 329.667969 71.878906 C 333.140625 67.695312 333.191406 61.664062 329.816406 57.378906 L 304.015625 24.996094 C 300.34375 20.511719 300.691406 13.933594 304.808594 9.800781 Z M 304.808594 9.800781 " fill-opacity="1" fill-rule="nonzero"/><path fill="#038445" d="M 329.617188 71.980469 L 304.214844 102.574219 C 300.445312 107.105469 300.742188 113.832031 304.910156 118.019531 L 307.984375 121.109375 C 312.648438 125.789062 320.242188 125.542969 324.609375 120.609375 L 333.785156 110.144531 C 337.261719 103.273438 339.195312 95.5 339.195312 87.277344 C 339.195312 77.113281 336.21875 67.695312 331.15625 59.773438 C 333.042969 63.660156 332.546875 68.492188 329.617188 71.980469 Z M 329.617188 71.980469 " fill-opacity="1" fill-rule="nonzero"/><g fill="#01eb78" fill-opacity="1"><g transform="translate(40.234587, 98.472651)"><g><path d="M 73.25 -73.5625 L 73.25 0 L 50.1875 0 L 50.1875 -28.671875 L 28.265625 -28.671875 L 28.265625 0 L 5.1875 0 L 5.1875 -73.5625 L 28.265625 -73.5625 L 28.265625 -47.0625 L 50.1875 -47.0625 L 50.1875 -73.5625 Z M 73.25 -73.5625 "/></g></g></g><g fill="#01eb78" fill-opacity="1"><g transform="translate(118.679237, 98.472651)"><g><path d="M 41.046875 0.734375 C 34.117188 0.734375 27.757812 -0.894531 21.96875 -4.15625 C 16.1875 -7.414062 11.597656 -11.914062 8.203125 -17.65625 C 4.804688 -23.40625 3.109375 -29.882812 3.109375 -37.09375 C 3.109375 -44.300781 4.804688 -50.78125 8.203125 -56.53125 C 11.597656 -62.28125 16.1875 -66.765625 21.96875 -69.984375 C 27.757812 -73.203125 34.117188 -74.8125 41.046875 -74.8125 C 47.972656 -74.8125 54.3125 -73.203125 60.0625 -69.984375 C 65.8125 -66.765625 70.363281 -62.28125 73.71875 -56.53125 C 77.082031 -50.78125 78.765625 -44.300781 78.765625 -37.09375 C 78.765625 -29.882812 77.082031 -23.40625 73.71875 -17.65625 C 70.363281 -11.914062 65.789062 -7.414062 60 -4.15625 C 54.21875 -0.894531 47.898438 0.734375 41.046875 0.734375 Z M 41.046875 -20.78125 C 45.617188 -20.78125 49.148438 -22.25 51.640625 -25.1875 C 54.128906 -28.132812 55.375 -32.101562 55.375 -37.09375 C 55.375 -42.144531 54.128906 -46.144531 51.640625 -49.09375 C 49.148438 -52.039062 45.617188 -53.515625 41.046875 -53.515625 C 36.398438 -53.515625 32.828125 -52.039062 30.328125 -49.09375 C 27.835938 -46.144531 26.59375 -42.144531 26.59375 -37.09375 C 26.59375 -32.101562 27.835938 -28.132812 30.328125 -25.1875 C 32.828125 -22.25 36.398438 -20.78125 41.046875 -20.78125 Z M 41.046875 -20.78125 "/></g></g></g><g fill="#01eb78" fill-opacity="1"><g transform="translate(200.552592, 98.472651)"><g><path d="M 41.046875 0.734375 C 34.117188 0.734375 27.757812 -0.894531 21.96875 -4.15625 C 16.1875 -7.414062 11.597656 -11.914062 8.203125 -17.65625 C 4.804688 -23.40625 3.109375 -29.882812 3.109375 -37.09375 C 3.109375 -44.300781 4.804688 -50.78125 8.203125 -56.53125 C 11.597656 -62.28125 16.1875 -66.765625 21.96875 -69.984375 C 27.757812 -73.203125 34.117188 -74.8125 41.046875 -74.8125 C 47.972656 -74.8125 54.3125 -73.203125 60.0625 -69.984375 C 65.8125 -66.765625 70.363281 -62.28125 73.71875 -56.53125 C 77.082031 -50.78125 78.765625 -44.300781 78.765625 -37.09375 C 78.765625 -29.882812 77.082031 -23.40625 73.71875 -17.65625 C 70.363281 -11.914062 65.789062 -7.414062 60 -4.15625 C 54.21875 -0.894531 47.898438 0.734375 41.046875 0.734375 Z M 41.046875 -20.78125 C 45.617188 -20.78125 49.148438 -22.25 51.640625 -25.1875 C 54.128906 -28.132812 55.375 -32.101562 55.375 -37.09375 C 55.375 -42.144531 54.128906 -46.144531 51.640625 -49.09375 C 49.148438 -52.039062 45.617188 -53.515625 41.046875 -53.515625 C 36.398438 -53.515625 32.828125 -52.039062 30.328125 -49.09375 C 27.835938 -46.144531 26.59375 -42.144531 26.59375 -37.09375 C 26.59375 -32.101562 27.835938 -28.132812 30.328125 -25.1875 C 32.828125 -22.25 36.398438 -20.78125 41.046875 -20.78125 Z M 41.046875 -20.78125 "/></g></g></g><g fill="#ffffff" fill-opacity="1"><g transform="translate(394.642679, 98.472651)"><g><path d="M 62.03125 -49.453125 C 62.03125 -45.234375 61.0625 -41.375 59.125 -37.875 C 57.1875 -34.375 54.207031 -31.550781 50.1875 -29.40625 C 46.164062 -27.257812 41.175781 -26.1875 35.21875 -26.1875 L 24.203125 -26.1875 L 24.203125 0 L 6.4375 0 L 6.4375 -72.9375 L 35.21875 -72.9375 C 41.039062 -72.9375 45.957031 -71.929688 49.96875 -69.921875 C 53.988281 -67.921875 57.003906 -65.148438 59.015625 -61.609375 C 61.023438 -58.078125 62.03125 -54.023438 62.03125 -49.453125 Z M 33.875 -40.3125 C 37.269531 -40.3125 39.796875 -41.109375 41.453125 -42.703125 C 43.117188 -44.296875 43.953125 -46.546875 43.953125 -49.453125 C 43.953125 -52.367188 43.117188 -54.625 41.453125 -56.21875 C 39.796875 -57.8125 37.269531 -58.609375 33.875 -58.609375 L 24.203125 -58.609375 L 24.203125 -40.3125 Z M 33.875 -40.3125 "/></g></g></g><g fill="#ffffff" fill-opacity="1"><g transform="translate(459.476404, 98.472651)"><g><path d="M 24.203125 -76.890625 L 24.203125 0 L 6.4375 0 L 6.4375 -76.890625 Z M 24.203125 -76.890625 "/></g></g></g><g fill="#ffffff" fill-opacity="1"><g transform="translate(490.126959, 98.472651)"><g><path d="M 2.90625 -29.09375 C 2.90625 -35.050781 4.03125 -40.28125 6.28125 -44.78125 C 8.53125 -49.28125 11.59375 -52.742188 15.46875 -55.171875 C 19.351562 -57.597656 23.6875 -58.8125 28.46875 -58.8125 C 32.550781 -58.8125 36.132812 -57.976562 39.21875 -56.3125 C 42.300781 -54.65625 44.675781 -52.472656 46.34375 -49.765625 L 46.34375 -57.984375 L 64.109375 -57.984375 L 64.109375 0 L 46.34375 0 L 46.34375 -8.203125 C 44.613281 -5.503906 42.207031 -3.320312 39.125 -1.65625 C 36.039062 0 32.453125 0.828125 28.359375 0.828125 C 23.648438 0.828125 19.351562 -0.398438 15.46875 -2.859375 C 11.59375 -5.316406 8.53125 -8.8125 6.28125 -13.34375 C 4.03125 -17.882812 2.90625 -23.132812 2.90625 -29.09375 Z M 46.34375 -28.984375 C 46.34375 -33.421875 45.113281 -36.921875 42.65625 -39.484375 C 40.195312 -42.046875 37.203125 -43.328125 33.671875 -43.328125 C 30.128906 -43.328125 27.128906 -42.0625 24.671875 -39.53125 C 22.210938 -37.007812 20.984375 -33.53125 20.984375 -29.09375 C 20.984375 -24.65625 22.210938 -21.140625 24.671875 -18.546875 C 27.128906 -15.953125 30.128906 -14.65625 33.671875 -14.65625 C 37.203125 -14.65625 40.195312 -15.9375 42.65625 -18.5 C 45.113281 -21.0625 46.34375 -24.554688 46.34375 -28.984375 Z M 46.34375 -28.984375 "/></g></g></g><g fill="#ffffff" fill-opacity="1"><g transform="translate(560.675186, 98.472651)"><g><path d="M 65.671875 -57.984375 L 29.296875 27.53125 L 10.1875 27.53125 L 23.484375 -1.96875 L -0.109375 -57.984375 L 19.734375 -57.984375 L 33.140625 -21.71875 L 46.453125 -57.984375 Z M 65.671875 -57.984375 "/></g></g></g></svg>